<?xml version="1.0" encoding="UTF-8" standalone="no"?>
<!DOCTYPE svg PUBLIC "-//W3C//DTD SVG 1.1//EN" "http://www.w3.org/Graphics/SVG/1.1/DTD/svg11.dtd">
<svg width="100%" height="100%" viewBox="0 0 800 600" version="1.1" xmlns="http://www.w3.org/2000/svg" xmlns:xlink="http://www.w3.org/1999/xlink" xml:space="preserve" xmlns:serif="http://www.serif.com/" style="fill-rule:evenodd;clip-rule:evenodd;stroke-linejoin:round;stroke-miterlimit:2;">
    <g transform="matrix(0.663018,0,0,0.663018,208.376,80.3215)">
        <path d="M484.434,166.636C484.434,139.547 462.441,117.554 435.352,117.554L152.556,117.554C125.466,117.554 103.473,139.547 103.473,166.636L103.473,449.433C103.473,476.522 125.466,498.515 152.556,498.515L435.352,498.515C462.441,498.515 484.434,476.522 484.434,449.433L484.434,166.636Z" style="fill:rgb(42,123,210);"/>
    </g>
    <g transform="matrix(0.593983,0,0,0.493148,200.456,156.752)">
        <path d="M354.863,153.566L194.406,153.566L194.406,194.685L339.392,194.685C344.375,180.946 349.524,167.231 354.863,153.566Z" style="fill:white;"/>
    </g>
    <g transform="matrix(0.629996,0,0,0.493148,193.455,243.8)">
        <path d="M285.792,173.489L290.854,153.566L194.406,153.566L194.406,194.685L280.705,194.685L285.792,173.489Z" style="fill:white;"/>
    </g>
    <g transform="matrix(0.629996,0,0,0.493148,193.455,243.8)">
        <path d="M382.67,153.566L380.214,156.1C370.054,166.566 361.283,174.416 356.796,186.648L355.635,194.685L473.007,194.685L473.007,153.566L382.67,153.566Z" style="fill:white;"/>
    </g>
    <g transform="matrix(0.629996,0,0,0.493148,193.455,200.276)">
        <path d="M315.824,153.566L194.406,153.566L194.406,194.685L303.644,194.685C307.523,180.931 311.593,167.227 315.824,153.566Z" style="fill:white;"/>
    </g>
    <g transform="matrix(0.629996,0,0,0.493148,193.455,200.276)">
        <path d="M449.578,153.566C440.797,169.68 432.071,183.142 423.601,194.685L473.007,194.685L473.007,153.566L449.578,153.566Z" style="fill:white;"/>
    </g>
    <g transform="matrix(0.232723,0,0,0.493148,270.687,287.325)">
        <path d="M399.497,153.566L194.406,153.566L194.406,194.685L377.403,194.685L378.416,191.712C385.116,178.962 392.104,166.241 399.497,153.566Z" style="fill:white;"/>
    </g>
    <g transform="matrix(0.458224,0.182281,-0.182281,0.458224,438.424,139.429)">
        <path d="M150.145,184.33L119.4,190.074L152.633,166.882C153.705,158.631 154.696,149.911 155.599,140.671C156.19,134.626 156.636,128.915 156.946,123.527L107.33,136.226L157.313,96.206C152.882,-14.271 68.356,70.17 63.359,75.262L63.304,73.499C41.132,223.424 43.809,369.208 63.304,512.189L88.919,447.442L77.108,388.014C76.822,338.166 133.198,306.796 150.145,184.33Z" style="fill:white;"/>
    </g>
</svg>
